<svg width="48" xmlns="http://www.w3.org/2000/svg" height="48" fill="none"><defs><clipPath id="a" class="frame-clip frame-clip-def"><rect rx="0" ry="0" width="48" height="48"/></clipPath></defs><g clip-path="url(#a)"><g class="fills"><rect rx="0" ry="0" width="48" height="48" class="frame-background"/></g><g style="fill: rgb(0, 0, 0);" class="frame-children"><path d="M22 34h4v-8h8v-4h-8v-8h-4v8h-8v4h8v8Zm2 10c-2.767 0-5.367-.525-7.8-1.575-2.433-1.05-4.55-2.475-6.35-4.275-1.8-1.8-3.225-3.917-4.275-6.35C4.525 29.367 4 26.767 4 24c0-2.767.525-5.367 1.575-7.8 1.05-2.433 2.475-4.55 4.275-6.35 1.8-1.8 3.917-3.225 6.35-4.275C18.633 4.525 21.233 4 24 4c2.767 0 5.367.525 7.8 1.575 2.433 1.05 4.55 2.475 6.35 4.275 1.8 1.8 3.225 3.917 4.275 6.35C43.475 18.633 44 21.233 44 24c0 2.767-.525 5.367-1.575 7.8-1.05 2.433-2.475 4.55-4.275 6.35-1.8 1.8-3.917 3.225-6.35 4.275C29.367 43.475 26.767 44 24 44Zm0-4c4.467 0 8.25-1.55 11.35-4.65C38.45 32.25 40 28.467 40 24s-1.55-8.25-4.65-11.35C32.25 9.55 28.467 8 24 8s-8.25 1.55-11.35 4.65C9.55 15.75 8 19.533 8 24s1.55 8.25 4.65 11.35C15.75 38.45 19.533 40 24 40Zm0-16Z" fill="ffffff" style="fill: rgb(12, 218, 8); fill-opacity: 1;" class="fills"/></g></g></svg>