<svg width="48" xmlns="http://www.w3.org/2000/svg" height="48" fill="none"><defs><clipPath id="a" class="frame-clip frame-clip-def"><rect rx="0" ry="0" width="48" height="48"/></clipPath></defs><g clip-path="url(#a)"><g class="fills"><rect rx="0" ry="0" width="48" height="48" class="frame-background"/></g><g style="fill: rgb(0, 0, 0);" class="frame-children"><path d="M14 42c-1.1 0-2.042-.392-2.825-1.175C10.392 40.042 10 39.1 10 38V12H8V8h10V6h12v2h10v4h-2v26c0 1.1-.392 2.042-1.175 2.825C36.042 41.608 35.1 42 34 42H14Zm20-30H14v26h20V12ZM18 34h4V16h-4v18Zm8 0h4V16h-4v18ZM14 12v26-26Z" fill="ffffff" style="fill: rgb(164, 14, 38); fill-opacity: 1;" class="fills"/></g></g></svg>