<svg width="48" xmlns="http://www.w3.org/2000/svg" height="48" fill="none"><defs><clipPath id="a" class="frame-clip frame-clip-def"><rect rx="0" ry="0" width="48" height="48"/></clipPath></defs><g clip-path="url(#a)"><g class="fills"><rect rx="0" ry="0" width="48" height="48" class="frame-background"/></g><g style="fill: rgb(0, 0, 0);" class="frame-children"><path d="M10 38h2.85L32.4 18.45l-2.85-2.85L10 35.15V38Zm-4 4v-8.5L32.4 7.15c.4-.367.842-.65 1.325-.85.483-.2.992-.3 1.525-.3.533 0 1.05.1 1.55.3.5.2.933.5 1.3.9l2.75 2.8c.4.367.692.8.875 1.3.183.5.275 1 .275 1.5a4.27 4.27 0 0 1-.275 1.525 3.746 3.746 0 0 1-.875 1.325L14.5 42H6Zm32-29.2L35.2 10l2.8 2.8Zm-7.05 4.25-1.4-1.45 2.85 2.85-1.45-1.4Z" fill="ffffff" style="fill: rgb(9, 105, 218); fill-opacity: 1;" class="fills"/></g></g></svg>