<svg width="48" xmlns="http://www.w3.org/2000/svg" height="48" fill="none"><defs><clipPath id="a" class="frame-clip frame-clip-def"><rect rx="0" ry="0" width="48" height="48"/></clipPath></defs><g clip-path="url(#a)"><g class="fills"><rect rx="0" ry="0" width="48" height="48" class="frame-background"/></g><g class="frame-children"><path d="M22 45.9v-4c-4.167-.467-7.742-2.192-10.725-5.175C8.292 33.742 6.567 30.167 6.1 26h-4v-4h4c.467-4.167 2.192-7.742 5.175-10.725C14.258 8.292 17.833 6.567 22 6.1v-4h4v4c4.167.467 7.742 2.192 10.725 5.175C39.708 14.258 41.433 17.833 41.9 22h4v4h-4c-.467 4.167-2.192 7.742-5.175 10.725C33.742 39.708 30.167 41.433 26 41.9v4h-4Zm2-7.9c3.867 0 7.167-1.367 9.9-4.1 2.733-2.733 4.1-6.033 4.1-9.9s-1.367-7.167-4.1-9.9C31.167 11.367 27.867 10 24 10s-7.167 1.367-9.9 4.1C11.367 16.833 10 20.133 10 24s1.367 7.167 4.1 9.9c2.733 2.733 6.033 4.1 9.9 4.1Zm0-6c-2.2 0-4.083-.783-5.65-2.35C16.783 28.083 16 26.2 16 24s.783-4.083 2.35-5.65C19.917 16.783 21.8 16 24 16s4.083.783 5.65 2.35C31.217 19.917 32 21.8 32 24s-.783 4.083-2.35 5.65C28.083 31.217 26.2 32 24 32Zm0-4c1.1 0 2.042-.392 2.825-1.175C27.608 26.042 28 25.1 28 24s-.392-2.042-1.175-2.825C26.042 20.392 25.1 20 24 20s-2.042.392-2.825 1.175C20.392 21.958 20 22.9 20 24s.392 2.042 1.175 2.825C21.958 27.608 22.9 28 24 28Zm0-4Z" fill="ffffff" class="fills" style="fill: rgb(0, 0, 0);"/></g></g></svg>