<svg width="48" xmlns="http://www.w3.org/2000/svg" height="48" fill="none"><defs><clipPath id="a" class="frame-clip frame-clip-def"><rect rx="0" ry="0" width="48" height="48"/></clipPath></defs><g clip-path="url(#a)"><g class="fills"><rect rx="0" ry="0" width="48" height="48" class="frame-background"/></g><g class="frame-children"><path d="M24 40c-4.467 0-8.25-1.55-11.35-4.65C9.55 32.25 8 28.467 8 24s1.55-8.25 4.65-11.35C15.75 9.55 19.533 8 24 8c2.3 0 4.5.475 6.6 1.425 2.1.95 3.9 2.308 5.4 4.075V8h4v14H26v-4h8.4a11.675 11.675 0 0 0-4.375-4.4C28.175 12.533 26.167 12 24 12c-3.333 0-6.167 1.167-8.5 3.5S12 20.667 12 24s1.167 6.167 3.5 8.5S20.667 36 24 36c2.567 0 4.883-.733 6.95-2.2s3.517-3.4 4.35-5.8h4.2c-.933 3.533-2.833 6.417-5.7 8.65C30.933 38.883 27.667 40 24 40Z" fill="ffffff" class="fills" style="fill: rgb(0, 0, 0);"/></g></g></svg>