<svg width="48" xmlns="http://www.w3.org/2000/svg" height="48" fill="none"><g data-testid="aerial-vehicle"><defs><clipPath id="a" class="frame-clip frame-clip-def"><rect rx="0" ry="0" width="48" height="48"/></clipPath></defs><g clip-path="url(#a)"><g class="fills"><rect rx="0" ry="0" width="48" height="48" class="frame-background"/></g><g class="frame-children"><circle cx="24" cy="24" style="fill: rgb(255, 255, 255); fill-opacity: 1;" r="24" class="fills" data-testid="Ellipse"/><g data-testid="svg" style="fill: rgb(0, 0, 0);"><path d="M42.333 8.518V9l-16.666 4.542V19h6.666c1.834 0 3.403.653 4.709 1.958C38.347 22.264 39 23.833 39 25.667v10a3.21 3.21 0 0 1-.979 2.354 3.21 3.21 0 0 1-2.354.979H12.333a3.21 3.21 0 0 1-2.354-.979A3.21 3.21 0 0 1 9 35.667v-10c0-1.834.653-3.403 1.958-4.709C12.264 19.653 13.833 19 15.667 19h6.666v-4.542L5.667 19v-3.333l8.541-2.334a3.529 3.529 0 0 1-.145-.458 2.214 2.214 0 0 1-.063-.542c0-.694.243-1.284.729-1.77a2.41 2.41 0 0 1 1.771-.73c.639 0 1.194.209 1.667.625.472.417.736.945.791 1.584l3.375-.917V9h3.334v1.208l3.583-.958a2.316 2.316 0 0 1-.187-.521A2.47 2.47 0 0 1 29 8.167c0-.695.243-1.285.729-1.771a2.412 2.412 0 0 1 1.771-.729 2.43 2.43 0 0 1 1.688.666c.486.445.756.986.812 1.625l6.162-1.694a24.07 24.07 0 0 1 2.171 2.254Zm-30 27.149h23.334v-3.334H12.333v3.334Zm0-6.667h5.542v-6.667h-2.208c-.917 0-1.702.327-2.354.98a3.208 3.208 0 0 0-.98 2.354V29Zm8.875 0h5.542v-6.667h-5.542V29Zm8.917 0h5.542v-3.333a3.21 3.21 0 0 0-.979-2.354 3.211 3.211 0 0 0-2.355-.98h-2.208V29Zm-17.792 6.667v-3.334 3.334Z" style="fill: rgb(0, 0, 0); fill-opacity: 1;" class="fills" data-testid="Intersection"/></g></g></g></g></svg>