<svg width="48" xmlns="http://www.w3.org/2000/svg" height="64" fill="none"><g data-testid="air-stop"><defs><clipPath id="a" class="frame-clip frame-clip-def"><rect rx="4" ry="4" width="48" height="64"/></clipPath></defs><g clip-path="url(#a)"><g class="fills"><rect width="48" height="64" class="frame-background" style="fill: rgb(16, 48, 160); fill-opacity: 1;" ry="4" rx="4"/></g><g class="frame-children"><rect rx="4" ry="4" x="4" y="4" width="40" height="40" style="fill: rgb(255, 255, 255); fill-opacity: 1;" class="fills" data-testid="Rectangle"/><g data-testid="svg" style="fill: rgb(0, 0, 0);"><path d="m20.542 39.208-4.125-7.666-7.667-4.125 2.958-2.917 6.042 1.042 4.25-4.25-13.208-5.625 3.5-3.584 16.041 2.834L33.5 9.75c.639-.639 1.431-.958 2.375-.958s1.736.319 2.375.958.958 1.424.958 2.354c0 .931-.319 1.715-.958 2.354l-5.208 5.209 2.833 16-3.542 3.541L26.667 26l-4.25 4.25 1.083 6-2.958 2.958Z" fill="0" class="fills" data-testid="svg-path"/></g></g></g></g></svg>