<svg width="48" xmlns="http://www.w3.org/2000/svg" height="64" fill="none"><g data-testid="coach-stop"><defs><clipPath id="a" class="frame-clip frame-clip-def"><rect rx="4" ry="4" width="48" height="64"/></clipPath></defs><g clip-path="url(#a)"><g class="fills"><rect width="48" height="64" class="frame-background" style="fill: rgb(16, 48, 160); fill-opacity: 1;" ry="4" rx="4"/></g><g class="frame-children"><rect rx="4" ry="4" x="4" y="4" width="40" height="40" style="fill: rgb(255, 255, 255); fill-opacity: 1;" class="fills" data-testid="Rectangle"/><g data-testid="svg" style="fill: rgb(0, 0, 0);"><path d="M14 39c-.472 0-.868-.16-1.187-.479-.32-.32-.48-.715-.48-1.188v-3.416a7.121 7.121 0 0 1-1.208-1.855 5.368 5.368 0 0 1-.458-2.229V14c0-2.306 1.069-3.993 3.208-5.063C16.014 7.868 19.389 7.333 24 7.333c4.778 0 8.194.514 10.25 1.542 2.056 1.028 3.083 2.736 3.083 5.125v15.833c0 .806-.152 1.549-.458 2.229a7.121 7.121 0 0 1-1.208 1.855v3.416c0 .473-.16.868-.479 1.188-.32.319-.716.479-1.188.479h-1.667c-.472 0-.868-.16-1.187-.479a1.611 1.611 0 0 1-.479-1.188v-1.666H17.333v1.666c0 .473-.159.868-.479 1.188a1.613 1.613 0 0 1-1.187.479H14Zm10.083-26.667h9.334H14.75h9.333ZM30.667 24H14h20-3.333ZM14 20.667h20v-5H14v5Zm4.167 10c.694 0 1.284-.243 1.771-.729a2.414 2.414 0 0 0 .729-1.771 2.41 2.41 0 0 0-.729-1.771 2.414 2.414 0 0 0-1.771-.729 2.41 2.41 0 0 0-1.771.729 2.41 2.41 0 0 0-.729 1.771c0 .694.243 1.284.729 1.771a2.41 2.41 0 0 0 1.771.729Zm11.666 0a2.41 2.41 0 0 0 1.771-.729 2.414 2.414 0 0 0 .729-1.771 2.41 2.41 0 0 0-.729-1.771 2.41 2.41 0 0 0-1.771-.729 2.41 2.41 0 0 0-1.77.729 2.408 2.408 0 0 0-.73 1.771c0 .694.243 1.284.73 1.771a2.41 2.41 0 0 0 1.77.729ZM14.75 12.333h18.667c-.417-.472-1.313-.868-2.688-1.187-1.375-.32-3.59-.479-6.646-.479-2.972 0-5.145.173-6.52.521-1.375.347-2.313.729-2.813 1.145Zm2.583 20h13.334a3.21 3.21 0 0 0 2.354-.979A3.208 3.208 0 0 0 34 29v-5H14v5c0 .917.326 1.701.979 2.354a3.21 3.21 0 0 0 2.354.979Z" fill="0" class="fills" data-testid="svg-path"/></g></g></g></g></svg>