<svg width="48" xmlns="http://www.w3.org/2000/svg" height="48" fill="none"><g data-testid="ferry-vehicle"><defs><clipPath id="a" class="frame-clip frame-clip-def"><rect rx="0" ry="0" width="48" height="48"/></clipPath></defs><g clip-path="url(#a)"><g class="fills"><rect rx="0" ry="0" width="48" height="48" class="frame-background"/></g><g class="frame-children"><circle cx="24" cy="24" style="fill: rgb(255, 255, 255); fill-opacity: 1;" r="24" class="fills" data-testid="Ellipse"/><g data-testid="svg" style="fill: rgb(0, 0, 0);"><path d="M7.333 41.263V39h3.334a11.385 11.385 0 0 0 6.666-2.167c1 .723 2.07 1.25 3.209 1.584 1.139.333 2.291.5 3.458.5 1.167 0 2.319-.167 3.458-.5a10.48 10.48 0 0 0 3.209-1.584A11.385 11.385 0 0 0 37.333 39h3.334v2.263c-.383.369-.778.726-1.185 1.07h-2.149a14.07 14.07 0 0 1-6.666-1.666 14.476 14.476 0 0 1-3.271 1.25 14.156 14.156 0 0 1-3.396.416c-1.139 0-2.271-.139-3.396-.416a14.476 14.476 0 0 1-3.271-1.25 14.07 14.07 0 0 1-6.666 1.666H8.518a24.537 24.537 0 0 1-1.185-1.07Zm3.25-5.596L7.417 24.5c-.084-.333-.049-.722.104-1.167.153-.444.479-.75.979-.916l2.167-.75V14c0-.917.326-1.701.979-2.354A3.208 3.208 0 0 1 14 10.667h5v-5h10v5h5c.917 0 1.701.326 2.354.979s.979 1.437.979 2.354v7.667l2.167.75c.583.222.931.548 1.042.979.111.43.125.798.041 1.104l-3.166 11.167c-1.389 0-2.653-.327-3.792-.979a12.071 12.071 0 0 1-2.958-2.355 12.095 12.095 0 0 1-2.959 2.355 7.338 7.338 0 0 1-3.708.979 7.338 7.338 0 0 1-3.708-.979 12.095 12.095 0 0 1-2.959-2.355 12.071 12.071 0 0 1-2.958 2.355c-1.139.652-2.403.979-3.792.979ZM14 20.583l10-3.25 10 3.25V14H14v6.583Zm10 11.75c1.306 0 2.41-.458 3.313-1.375.902-.916 2.02-2.152 3.354-3.708a228.24 228.24 0 0 1 2.708 3.083 6.55 6.55 0 0 0 1.708 1.417l1.834-6.667L24 20.833l-13 4.25 1.917 6.584a7.6 7.6 0 0 0 1.708-1.334c.472-.5 1.375-1.527 2.708-3.083 1.389 1.583 2.521 2.826 3.396 3.729s1.965 1.354 3.271 1.354Z" style="fill: rgb(0, 0, 0);" class="fills" data-testid="Intersection"/></g></g></g></g></svg>