<svg width="48" xmlns="http://www.w3.org/2000/svg" height="64" fill="none"><g data-testid="funicular-stop"><defs><clipPath id="a" class="frame-clip frame-clip-def"><rect rx="4" ry="4" width="48" height="64"/></clipPath></defs><g clip-path="url(#a)"><g class="fills"><rect width="48" height="64" class="frame-background" style="fill: rgb(16, 48, 160); fill-opacity: 1;" ry="4" rx="4"/></g><g class="frame-children"><rect rx="4" ry="4" x="4" y="4" width="40" height="40" style="fill: rgb(255, 255, 255); fill-opacity: 1;" class="fills" data-testid="Rectangle"/><g data-testid="svg" style="fill: rgb(0, 0, 0);"><path d="M5.667 42.333V39L14 36.708v-4.375H9V14H7.333v-3.333h5V7.333h23.334v3.334h5V14H39v15h-5v2.292L42.333 29v3.333l-36.666 10ZM19 35.375l10-2.75V29h-3.333v3.333H19v3.042ZM12.333 29h10v-1.667h-10V29Zm13.334-3.333h10V24h-10v1.667ZM12.333 24h10V14h-10v10Zm13.334-3.333h10V14h-10v6.667ZM22.333 29v-1.667V29Zm3.334-3.333V24v1.667Z" fill="0" class="fills" data-testid="svg-path"/></g></g></g></g></svg>