<svg width="48" xmlns="http://www.w3.org/2000/svg" height="48" fill="none"><g data-testid="funicular-vehicle"><defs><clipPath id="a" class="frame-clip frame-clip-def"><rect rx="0" ry="0" width="48" height="48"/></clipPath></defs><g clip-path="url(#a)"><g class="fills"><rect rx="0" ry="0" width="48" height="48" class="frame-background"/></g><g class="frame-children"><circle cx="24" cy="24" style="fill: rgb(255, 255, 255); fill-opacity: 1;" r="24" class="fills" data-testid="Ellipse"/><g data-testid="svg" style="fill: rgb(0, 0, 0);"><path d="M5.667 39.482V39L14 36.708v-4.375H9V14H7.333v-3.333h5V7.333h23.334v3.334h5V14H39v15h-5v2.292L42.333 29v3.333L7.842 41.74a24.153 24.153 0 0 1-2.175-2.258ZM19 35.375l10-2.75V29h-3.333v3.333H19v3.042ZM12.333 29h10v-1.667h-10V29Zm13.334-3.333h10V24h-10v1.667ZM12.333 24h10V14h-10v10Zm13.334-3.333h10V14h-10v6.667ZM22.333 29v-1.667V29Zm3.334-3.333V24v1.667Z" style="fill: rgb(0, 0, 0); fill-opacity: 1;" class="fills" data-testid="Intersection"/></g></g></g></g></svg>