<svg width="48" xmlns="http://www.w3.org/2000/svg" height="48" fill="none"><g data-testid="metro-vehicle"><defs><clipPath id="a" class="frame-clip frame-clip-def"><rect rx="0" ry="0" width="48" height="48"/></clipPath></defs><g clip-path="url(#a)"><g class="fills"><rect rx="0" ry="0" width="48" height="48" class="frame-background"/></g><g class="frame-children"><circle cx="24" cy="24" style="fill: rgb(255, 255, 255); fill-opacity: 1;" r="24" class="fills" data-testid="Ellipse"/><g data-testid="svg" style="fill: rgb(0, 0, 0);"><path d="M7.333 40.667V18.75c0-2.361.611-4.41 1.834-6.146 1.222-1.736 2.944-3.048 5.166-3.937 1.5-.584 3.098-.952 4.792-1.104A54.26 54.26 0 0 1 24 7.333c1.556 0 3.181.077 4.875.23 1.694.152 3.292.52 4.792 1.104 2.222.889 3.944 2.201 5.166 3.937 1.223 1.736 1.834 3.785 1.834 6.146v21.917H7.333Zm11.834-3.334h9.583l-2.5-2.5h-4.583l-2.5 2.5ZM16.5 25.667h15V19h-15v6.667ZM29.833 31.5c.473 0 .868-.16 1.188-.479.319-.32.479-.715.479-1.188 0-.472-.16-.868-.479-1.187a1.611 1.611 0 0 0-1.188-.479c-.472 0-.868.159-1.187.479-.32.319-.479.715-.479 1.187 0 .473.159.868.479 1.188.319.319.715.479 1.187.479Zm-11.666 0c.472 0 .868-.16 1.187-.479.32-.32.479-.715.479-1.188 0-.472-.159-.868-.479-1.187a1.609 1.609 0 0 0-1.187-.479c-.473 0-.868.159-1.188.479a1.613 1.613 0 0 0-.479 1.187c0 .473.16.868.479 1.188.32.319.715.479 1.188.479Zm-7.5 5.833H16.5V36.5l1.75-1.75a4.747 4.747 0 0 1-3.042-1.646c-.805-.93-1.208-2.021-1.208-3.271V19c0-2.167 1.035-3.542 3.104-4.125C19.174 14.292 21.472 14 24 14c2.778 0 5.139.292 7.083.875C33.028 15.458 34 16.833 34 19v10.833c0 1.25-.403 2.341-1.208 3.271a4.747 4.747 0 0 1-3.042 1.646l1.75 1.75v.833h5.833V18.75c0-1.667-.409-3.09-1.229-4.271-.819-1.18-2.048-2.09-3.687-2.729-1.223-.472-2.577-.771-4.063-.896A51.938 51.938 0 0 0 24 10.667c-1.417 0-2.868.062-4.354.187-1.486.125-2.84.424-4.063.896-1.639.639-2.868 1.549-3.687 2.729-.82 1.181-1.229 2.604-1.229 4.271v18.583Zm0 0h26.666-26.666Z" fill="0" class="fills" data-testid="svg-path"/></g></g></g></g></svg>