<svg width="48" xmlns="http://www.w3.org/2000/svg" height="64" fill="none"><g data-testid="monorail-stop"><defs><clipPath id="a" class="frame-clip frame-clip-def"><rect rx="4" ry="4" width="48" height="64"/></clipPath></defs><g clip-path="url(#a)"><g class="fills"><rect width="48" height="64" class="frame-background" style="fill: rgb(16, 48, 160); fill-opacity: 1;" ry="4" rx="4"/></g><g class="frame-children"><rect rx="4" ry="4" x="4" y="4" width="40" height="40" style="fill: rgb(255, 255, 255); fill-opacity: 1;" class="fills" data-testid="Rectangle"/><g data-testid="svg" style="fill: rgb(0, 0, 0);"><path d="M22.333 32.333h3.334v5H34v3.334H14v-3.334h8.333v-5Zm-5-25h13.334c1.833 0 3.402.653 4.708 1.959 1.306 1.305 1.958 2.875 1.958 4.708v15.833c0 1.639-.569 3.021-1.708 4.146s-2.514 1.688-4.125 1.688h-4.167v-5h-6.666v5H16.5c-1.639 0-3.021-.563-4.146-1.688s-1.687-2.507-1.687-4.146V14c0-1.833.646-3.403 1.937-4.708 1.292-1.306 2.868-1.959 4.729-1.959ZM14 24v5.833c0 .723.236 1.32.708 1.792.473.472 1.07.708 1.792.708h.833v-5h13.334v5h.833c.694 0 1.285-.236 1.771-.708S34 30.556 34 29.833V24H14Zm0-8.333v5h20v-5H14Zm3.333-5c-.639 0-1.201.152-1.687.458a3.669 3.669 0 0 0-1.188 1.208h19.084a3.6 3.6 0 0 0-1.209-1.208 3.127 3.127 0 0 0-1.666-.458H17.333ZM14 24h20-20Zm3.333-11.667h16.209-19.084 2.875Z" fill="0" class="fills" data-testid="svg-path"/></g></g></g></g></svg>