<svg width="48" xmlns="http://www.w3.org/2000/svg" height="48" fill="none"><g data-testid="other-vehicle"><defs><clipPath id="a" class="frame-clip frame-clip-def"><rect rx="0" ry="0" width="48" height="48"/></clipPath></defs><g clip-path="url(#a)"><g class="fills"><rect rx="0" ry="0" width="48" height="48" class="frame-background"/></g><g class="frame-children"><circle cx="24" cy="24" style="fill: rgb(255, 255, 255); fill-opacity: 1;" r="24" class="fills" data-testid="Ellipse"/><g data-testid="svg" style="fill: rgb(0, 0, 0);"><path d="M10.667 39c-1.389 0-2.57-.486-3.542-1.458-.972-.973-1.458-2.153-1.458-3.542 0-.722.139-1.41.416-2.062a4.514 4.514 0 0 1 1.25-1.688v-7.917h3.334v-10H24l7.833 18.459c.167.389.292.777.375 1.166.084.389.125.792.125 1.209 0 1.611-.569 2.986-1.708 4.125C29.486 38.431 28.111 39 26.5 39a5.838 5.838 0 0 1-3.146-.896 5.544 5.544 0 0 1-2.146-2.437h-5.833a4.958 4.958 0 0 1-1.833 2.416 4.855 4.855 0 0 1-2.875.917ZM34 37.333V10.667h3.333V34h5v3.333H34Zm-23.333-1.666c.472 0 .868-.16 1.187-.479.32-.32.479-.716.479-1.188s-.159-.868-.479-1.187a1.61 1.61 0 0 0-1.187-.48c-.473 0-.868.16-1.188.48A1.613 1.613 0 0 0 9 34c0 .472.16.868.479 1.188.32.319.715.479 1.188.479Zm15.833 0c.694 0 1.285-.243 1.771-.729A2.414 2.414 0 0 0 29 33.167a2.41 2.41 0 0 0-.729-1.771 2.412 2.412 0 0 0-1.771-.729c-.694 0-1.285.243-1.771.729A2.41 2.41 0 0 0 24 33.167c0 .694.243 1.284.729 1.771a2.412 2.412 0 0 0 1.771.729Zm-11.125-3.334h5.333c.056-.305.118-.59.188-.854.069-.264.173-.535.312-.812h-3.75l-4.875-5h-1.916V29c1.055 0 2.014.306 2.875.917a4.958 4.958 0 0 1 1.833 2.416Zm3.5-5h7.875l-4.958-11.666H14v6.666l4.875 5Zm-1.417 3.334-.77-.792c-.514-.528-1.07-1.104-1.667-1.729a100.65 100.65 0 0 0-1.667-1.708l-.771-.771h-1.916 1.916l4.875 5Zh3.75-3.75Z" fill="0" class="fills" data-testid="svg-path"/></g></g></g></g></svg>