<svg width="48" xmlns="http://www.w3.org/2000/svg" height="48" fill="none"><g data-testid="railway-vehicle"><defs><clipPath id="a" class="frame-clip frame-clip-def"><rect rx="0" ry="0" width="48" height="48"/></clipPath></defs><g clip-path="url(#a)"><g class="fills"><rect rx="0" ry="0" width="48" height="48" class="frame-background"/></g><g class="frame-children"><circle cx="24" cy="24" style="fill: rgb(255, 255, 255); fill-opacity: 1;" r="24" class="fills" data-testid="Ellipse"/><g data-testid="svg" style="fill: rgb(0, 0, 0);"><path d="M10.667 29.833V14c0-1.472.382-2.646 1.146-3.521.763-.875 1.77-1.541 3.02-2 1.25-.458 2.674-.764 4.271-.916A51.32 51.32 0 0 1 24 7.333c1.833 0 3.563.077 5.188.23 1.625.152 3.041.458 4.25.916 1.208.459 2.159 1.125 2.854 2 .694.875 1.041 2.049 1.041 3.521v15.833c0 1.639-.562 3.021-1.687 4.146s-2.507 1.688-4.146 1.688l2.5 2.5V39h-3.333l-3.334-3.333h-6.666L17.333 39H14v-.833l2.5-2.5c-1.639 0-3.021-.563-4.146-1.688s-1.687-2.507-1.687-4.146ZM24 10.667c-2.944 0-5.097.173-6.458.521-1.361.347-2.292.729-2.792 1.145h18.667c-.417-.472-1.313-.868-2.688-1.187-1.375-.32-3.618-.479-6.729-.479Zm-10 10h8.333v-5H14v5ZM31.5 24H14h20-2.5Zm-5.833-3.333H34v-5h-8.333v5Zm-7.5 10c.722 0 1.319-.236 1.791-.709.473-.472.709-1.069.709-1.791 0-.723-.236-1.32-.709-1.792-.472-.472-1.069-.708-1.791-.708-.723 0-1.32.236-1.792.708s-.708 1.069-.708 1.792c0 .722.236 1.319.708 1.791.472.473 1.069.709 1.792.709Zm11.666 0c.723 0 1.32-.236 1.792-.709.472-.472.708-1.069.708-1.791 0-.723-.236-1.32-.708-1.792s-1.069-.708-1.792-.708c-.722 0-1.319.236-1.791.708-.473.472-.709 1.069-.709 1.792 0 .722.236 1.319.709 1.791.472.473 1.069.709 1.791.709ZM16.5 32.333h15c.722 0 1.319-.236 1.792-.708.472-.472.708-1.069.708-1.792V24H14v5.833c0 .723.236 1.32.708 1.792.473.472 1.07.708 1.792.708Zm7.5-20h9.417H14.75 24Z" fill="0" class="fills" data-testid="svg-path"/></g></g></g></g></svg>