<svg width="48" xmlns="http://www.w3.org/2000/svg" height="64" fill="none"><g data-testid="taxi-stop"><defs><clipPath id="a" class="frame-clip frame-clip-def"><rect rx="4" ry="4" width="48" height="64"/></clipPath></defs><g clip-path="url(#a)"><g class="fills"><rect width="48" height="64" class="frame-background" style="fill: rgb(16, 48, 160); fill-opacity: 1;" ry="4" rx="4"/></g><g class="frame-children"><rect rx="4" ry="4" x="4" y="4" width="40" height="40" style="fill: rgb(255, 255, 255); fill-opacity: 1;" class="fills" data-testid="Rectangle"/><g data-testid="svg" style="fill: rgb(0, 0, 0);"><path d="M14 35.667v1.666c0 .473-.16.868-.479 1.188-.32.319-.715.479-1.188.479h-1.666c-.473 0-.868-.16-1.188-.479A1.615 1.615 0 0 1 9 37.333V24l3.5-10c.167-.5.465-.903.896-1.208.43-.306.91-.459 1.437-.459H19V9h10v3.333h4.167c.527 0 1.007.153 1.437.459.431.305.729.708.896 1.208L39 24v13.333c0 .473-.16.868-.479 1.188-.32.319-.715.479-1.188.479h-1.666c-.473 0-.868-.16-1.188-.479A1.615 1.615 0 0 1 34 37.333v-1.666H14Zm-.333-15h20.666l-1.75-5H15.417l-1.75 5ZM12.333 24v8.333V24Zm4.167 6.667c.694 0 1.285-.243 1.771-.729A2.414 2.414 0 0 0 19 28.167a2.41 2.41 0 0 0-.729-1.771 2.412 2.412 0 0 0-1.771-.729c-.694 0-1.285.243-1.771.729A2.41 2.41 0 0 0 14 28.167c0 .694.243 1.284.729 1.771a2.412 2.412 0 0 0 1.771.729Zm15 0c.694 0 1.285-.243 1.771-.729A2.414 2.414 0 0 0 34 28.167a2.41 2.41 0 0 0-.729-1.771 2.412 2.412 0 0 0-1.771-.729c-.694 0-1.285.243-1.771.729A2.41 2.41 0 0 0 29 28.167c0 .694.243 1.284.729 1.771a2.412 2.412 0 0 0 1.771.729Zm-19.167 1.666h23.334V24H12.333v8.333Z" fill="0" class="fills" data-testid="svg-path"/></g></g></g></g></svg>