<svg width="48" xmlns="http://www.w3.org/2000/svg" height="64" fill="none"><g data-testid="tram-stop"><defs><clipPath id="a" class="frame-clip frame-clip-def"><rect rx="4" ry="4" width="48" height="64"/></clipPath></defs><g clip-path="url(#a)"><g class="fills"><rect width="48" height="64" class="frame-background" style="fill: rgb(16, 48, 160); fill-opacity: 1;" ry="4" rx="4"/></g><g class="frame-children"><rect rx="4" ry="4" x="4" y="4" width="40" height="40" style="fill: rgb(255, 255, 255); fill-opacity: 1;" class="fills" data-testid="Rectangle"/><g data-testid="svg" style="fill: rgb(0, 0, 0);"><path d="M10.667 33.167V17.333c0-2.694 1.18-4.458 3.541-5.291 2.361-.834 5.07-1.292 8.125-1.375l1.25-2.5h-7.916v-2.5h16.666v2.5h-5.416l-1.25 2.5c3.305.083 6.076.534 8.312 1.354 2.236.819 3.354 2.59 3.354 5.312v15.834c0 1.639-.562 3.021-1.687 4.146S33.139 39 31.5 39l2.5 2.5v.833h-3.333L27.333 39h-6.666l-3.334 3.333H14V41.5l2.5-2.5c-1.639 0-3.021-.562-4.146-1.687s-1.687-2.507-1.687-4.146ZM31.5 27.333H14h20-2.5ZM24 34c.694 0 1.285-.243 1.771-.729A2.412 2.412 0 0 0 26.5 31.5c0-.694-.243-1.285-.729-1.771A2.412 2.412 0 0 0 24 29c-.694 0-1.285.243-1.771.729A2.412 2.412 0 0 0 21.5 31.5c0 .694.243 1.285.729 1.771A2.412 2.412 0 0 0 24 34Zm-.083-18.333h9.5-18.75 9.25ZM14 24h20v-5H14v5Zm2.5 11.667h15c.722 0 1.319-.236 1.792-.709.472-.472.708-1.069.708-1.791v-5.834H14v5.834c0 .722.236 1.319.708 1.791.473.473 1.07.709 1.792.709ZM23.917 14c-3.723 0-6.111.201-7.167.604-1.056.403-1.75.757-2.083 1.063h18.75c-.334-.389-1.056-.764-2.167-1.125-1.111-.361-3.556-.542-7.333-.542Z" fill="0" class="fills" data-testid="svg-path"/></g></g></g></g></svg>