<svg width="48" xmlns="http://www.w3.org/2000/svg" height="64" fill="none"><g data-testid="trolleybus-stop"><defs><clipPath id="a" class="frame-clip frame-clip-def"><rect rx="4" ry="4" width="48" height="64"/></clipPath></defs><g clip-path="url(#a)"><g class="fills"><rect width="48" height="64" class="frame-background" style="fill: rgb(16, 48, 160); fill-opacity: 1;" ry="4" rx="4"/></g><g class="frame-children"><rect rx="4" ry="4" x="4" y="4" width="40" height="40" style="fill: rgb(255, 255, 255); fill-opacity: 1;" class="fills" data-testid="Rectangle"/><g data-testid="Group"><g data-testid="svg" style="fill: rgb(0, 0, 0);"><path d="M37.333 25v7.833c0 .806-.152 1.549-.458 2.229a7.121 7.121 0 0 1-1.208 1.855v3.416c0 .473-.16.868-.479 1.188-.32.319-.716.479-1.188.479h-1.667c-.472 0-.868-.16-1.187-.479a1.611 1.611 0 0 1-.479-1.188v-1.666H17.333v1.666c0 .473-.159.868-.479 1.188a1.613 1.613 0 0 1-1.187.479H14c-.472 0-.868-.16-1.187-.479-.32-.32-.48-.715-.48-1.188v-3.416a7.121 7.121 0 0 1-1.208-1.855 5.368 5.368 0 0 1-.458-2.229V25h26.666Zm-6.666 2H14h20-3.333Zm-12.5 6.667c.694 0 1.284-.243 1.771-.729a2.414 2.414 0 0 0 .729-1.771 2.41 2.41 0 0 0-.729-1.771 2.414 2.414 0 0 0-1.771-.729 2.41 2.41 0 0 0-1.771.729 2.41 2.41 0 0 0-.729 1.771c0 .694.243 1.284.729 1.771a2.41 2.41 0 0 0 1.771.729Zm11.666 0a2.41 2.41 0 0 0 1.771-.729 2.414 2.414 0 0 0 .729-1.771 2.41 2.41 0 0 0-.729-1.771 2.41 2.41 0 0 0-1.771-.729 2.41 2.41 0 0 0-1.77.729 2.408 2.408 0 0 0-.73 1.771c0 .694.243 1.284.73 1.771a2.41 2.41 0 0 0 1.77.729Zm-12.5 1.666h13.334a3.21 3.21 0 0 0 2.354-.979A3.208 3.208 0 0 0 34 32v-5H14v5c0 .917.326 1.701.979 2.354a3.21 3.21 0 0 0 2.354.979Z" style="fill: rgb(0, 0, 0); fill-opacity: 1;" class="fills" data-testid="Intersection"/></g><g data-testid="svg" style="fill: rgb(0, 0, 0);"><path d="M10.667 26v-8.667c0-2.694 1.18-4.458 3.541-5.291 2.361-.834 5.07-1.292 8.125-1.375l1.25-2.5h-7.916v-2.5h16.666v2.5h-5.416l-1.25 2.5c3.305.083 6.076.534 8.312 1.354 2.236.819 3.354 2.59 3.354 5.312V26H10.667Zm13.25-10.333h9.5-18.75 9.25ZM14 24h20v-5H14v5Zm9.917-10c-3.723 0-6.111.201-7.167.604-1.056.403-1.75.757-2.083 1.063h18.75c-.334-.389-1.056-.764-2.167-1.125-1.111-.361-3.556-.542-7.333-.542Z" style="fill: rgb(0, 0, 0); fill-opacity: 1;" class="fills" data-testid="Intersection"/></g></g></g></g></g></svg>