<svg xmlns="http://www.w3.org/2000/svg" fill="none" viewBox="0 0 64 64"><g data-testid="logo"><defs><clipPath id="a" class="frame-clip frame-clip-def"><rect width="64" height="64" rx="0" ry="0"/></clipPath></defs><g clip-path="url(#a)"><g class="fills"><rect width="64" height="64" class="frame-background" rx="0" ry="0"/></g><g class="frame-children"><rect width="48" height="64" x="8" fill="#1030a0" class="fills" data-testid="Rectangle" rx="4" ry="4"/><rect width="40" height="40" x="12" y="4" fill="#fff" class="fills" data-testid="Rectangle" rx="4" ry="4"/><path fill="#000" d="M32 40.67a16.83 16.83 0 0 1-11.8-4.88 16.68 16.68 0 0 1-3.55-18.29A16.68 16.68 0 0 1 32 7.33c4.06 0 7.6 1.27 10.65 3.82a16.18 16.18 0 0 1 5.68 9.56h-3.41a13.41 13.41 0 0 0-2.86-5.44 12.96 12.96 0 0 0-5.06-3.6v.66c0 .92-.33 1.7-.98 2.36-.65.65-1.44.98-2.35.98h-3.34V19c0 .47-.16.87-.48 1.19a1.61 1.61 0 0 1-1.18.48h-3.34V24h3.34v5H27l-8-8-.23 1.5a12.93 12.93 0 0 0 3.73 10.88 12.9 12.9 0 0 0 9.5 3.95v3.34Zm15.17-.84-5.34-5.33c-.58.33-1.2.61-1.87.83a6.65 6.65 0 0 1-2.13.34 7.23 7.23 0 0 1-5.3-2.2 7.23 7.23 0 0 1-2.2-5.3 7.2 7.2 0 0 1 2.2-5.32 7.23 7.23 0 0 1 5.3-2.18c2.09 0 3.86.73 5.32 2.18A7.23 7.23 0 0 1 45 30.3c-.22.67-.5 1.3-.83 1.88l5.33 5.33-2.33 2.33Zm-9.34-7.5c1.17 0 2.16-.4 2.96-1.2.8-.81 1.21-1.8 1.21-2.96 0-1.17-.4-2.16-1.2-2.96A4.07 4.07 0 0 0 37.83 24a4.07 4.07 0 0 0-4.16 4.17c0 1.16.4 2.15 1.2 2.95.81.81 1.8 1.21 2.96 1.21Z" class="fills" data-testid="svg-path"/></g></g></g></svg>